<svg width="16" height="16" viewBox="0 0 16 16" fill="none" xmlns="http://www.w3.org/2000/svg">
<path d="M13.2534 13.96C12.6201 14.4267 11.7867 14.6667 10.7934 14.6667H5.20673C5.04673 14.6667 4.88673 14.66 4.7334 14.64L9.33339 10.04L13.2534 13.96Z" fill="#F15045"/>
<path d="M14.6667 5.20666V10.7933C14.6667 11.7867 14.4267 12.62 13.96 13.2533L10.04 9.33333L14.64 4.73333C14.66 4.88666 14.6667 5.04666 14.6667 5.20666Z" fill="#F15045"/>
<path d="M10.0402 9.33333L13.9602 13.2533C13.7668 13.5333 13.5335 13.7667 13.2535 13.96L9.3335 10.04L4.7335 14.64C4.30683 14.6133 3.92017 14.5267 3.56683 14.3933C2.14017 13.8733 1.3335 12.6067 1.3335 10.7933V5.20666C1.3335 2.78 2.78016 1.33333 5.20683 1.33333H10.7935C12.6068 1.33333 13.8735 2.14 14.3935 3.56666C14.5268 3.92 14.6135 4.30666 14.6402 4.73333L10.0402 9.33333Z" fill="#F15045"/>
<path d="M10.0402 9.33333L13.9602 13.2533C13.7669 13.5333 13.5336 13.7667 13.2536 13.96L9.33356 10.04L4.73356 14.64C4.30689 14.6133 3.92023 14.5267 3.56689 14.3933L3.82688 14.1333L14.3936 3.56666C14.5269 3.92 14.6136 4.30666 14.6402 4.73333L10.0402 9.33333Z" fill="#292D32"/>
<path d="M8.15987 5.28667C7.90653 4.18667 6.9332 3.69333 6.07987 3.68666C5.22654 3.68666 4.25321 4.18 3.99988 5.28C3.71988 6.5 4.46654 7.52 5.13987 8.16C5.40654 8.41333 5.73987 8.53333 6.07987 8.53333C6.41987 8.53333 6.75321 8.40666 7.01987 8.16C7.69321 7.52 8.43987 6.5 8.15987 5.28667ZM6.09987 6.32666C5.7332 6.32666 5.4332 6.02666 5.4332 5.66C5.4332 5.29333 5.72654 4.99333 6.09987 4.99333H6.10654C6.47321 4.99333 6.77321 5.29333 6.77321 5.66C6.77321 6.02666 6.46654 6.32666 6.09987 6.32666Z" fill="#292D32"/>
</svg>
