<svg width="16" height="16" viewBox="0 0 16 16" fill="none" xmlns="http://www.w3.org/2000/svg">
<path d="M13.7467 5.63333C13.0467 2.55333 10.3601 1.16667 8.00006 1.16667C8.00006 1.16667 8.00006 1.16667 7.9934 1.16667C5.64006 1.16667 2.94673 2.54667 2.24673 5.62667C1.46673 9.06667 3.5734 11.98 5.48006 13.8133C6.18673 14.4933 7.0934 14.8333 8.00006 14.8333C8.90673 14.8333 9.8134 14.4933 10.5134 13.8133C12.4201 11.98 14.5267 9.07333 13.7467 5.63333Z" fill="#F15045"/>
<path d="M7.9999 8.97333C9.1597 8.97333 10.0999 8.03313 10.0999 6.87333C10.0999 5.71353 9.1597 4.77333 7.9999 4.77333C6.8401 4.77333 5.8999 5.71353 5.8999 6.87333C5.8999 8.03313 6.8401 8.97333 7.9999 8.97333Z" fill="#292D32"/>
</svg>
