<svg width="32" height="32" viewBox="0 0 32 32" fill="none" xmlns="http://www.w3.org/2000/svg">
<path d="M27.3334 15.0666V9.38668C27.3334 4.01334 26.0801 2.66666 21.0401 2.66666H10.9601C5.92008 2.66666 4.66675 4.01334 4.66675 9.38668V24.4C4.66675 27.9466 6.61343 28.7867 8.97343 26.2533L8.98674 26.24C10.0801 25.08 11.7467 25.1733 12.6934 26.44L14.0401 28.24" stroke="#292D32" stroke-width="1.5" stroke-linecap="round" stroke-linejoin="round"/>
<path d="M24.2667 28.5333C26.6231 28.5333 28.5333 26.6231 28.5333 24.2667C28.5333 21.9103 26.6231 20 24.2667 20C21.9103 20 20 21.9103 20 24.2667C20 26.6231 21.9103 28.5333 24.2667 28.5333Z" stroke="#292D32" stroke-width="1.5" stroke-linecap="round" stroke-linejoin="round"/>
<path d="M29.3333 29.3333L28 28" stroke="#292D32" stroke-width="1.5" stroke-linecap="round" stroke-linejoin="round"/>
<path d="M10.6667 9.33334H21.3334" stroke="#F15045" stroke-width="1.5" stroke-linecap="round" stroke-linejoin="round"/>
<path d="M12 14.6667H20" stroke="#F15045" stroke-width="1.5" stroke-linecap="round" stroke-linejoin="round"/>
</svg>
