<svg width="20" height="20" viewBox="0 0 20 20" fill="none" xmlns="http://www.w3.org/2000/svg">
<path fill-rule="evenodd" clip-rule="evenodd" d="M20 4.87195C19.3103 5.16751 18.5222 5.36453 17.6355 5.46305C18.4236 4.97044 19.1133 4.18225 19.4089 3.29555C18.6207 3.78817 17.734 4.08373 16.8473 4.28078C16.1576 3.4926 15.0739 3 13.8916 3C11.6256 3 9.85222 4.7734 9.85222 6.94089C9.85222 7.23645 9.85222 7.53204 9.95074 7.82761C6.60099 7.63057 3.64532 6.0542 1.57636 3.68967C1.18227 4.2808 0.985225 4.97046 0.985225 5.66011C0.985225 7.03942 1.67488 8.22165 2.75862 9.00983C2.06896 9.00983 1.47783 8.81278 0.886697 8.51722C0.886697 8.51722 0.886697 8.51725 0.886697 8.61578C0.886697 10.5862 2.26601 12.1626 4.13793 12.5567C3.84236 12.6552 3.44828 12.6552 3.05419 12.6552C2.75862 12.6552 2.56157 12.6552 2.26601 12.5567C2.75862 14.133 4.23645 15.3153 6.00985 15.3153C4.63054 16.399 2.85715 16.9902 0.985225 16.9902C0.689658 16.9902 0.29557 16.9901 3.00666e-06 16.8916C1.7734 18.0739 3.94089 18.665 6.20689 18.665C13.5961 18.665 17.734 12.5567 17.734 7.335C17.734 7.13796 17.734 6.94091 17.734 6.84239C18.8177 6.34978 19.5074 5.66012 20 4.87195Z" fill="#26A7DE"/>
</svg>
