<svg width="20" height="20" viewBox="0 0 20 20" fill="none" xmlns="http://www.w3.org/2000/svg">
<path d="M17.9823 5.71244C18.099 5.32494 17.9823 5.04077 17.4307 5.04077H15.6032C15.1382 5.04077 14.9257 5.28661 14.809 5.55661C14.809 5.55661 13.8798 7.82244 12.5632 9.2916C12.1382 9.7191 11.944 9.8541 11.7123 9.8541C11.5965 9.8541 11.4282 9.71911 11.4282 9.3316V5.71244C11.4282 5.24744 11.294 5.04077 10.9065 5.04077H8.03484C7.74484 5.04077 7.56984 5.25577 7.56984 5.46077C7.56984 5.90077 8.22817 6.00244 8.29567 7.24244V9.93244C8.29567 10.5216 8.18984 10.6291 7.9565 10.6291C7.33734 10.6291 5.83067 8.35494 4.9365 5.7516C4.76234 5.24577 4.5865 5.04161 4.11984 5.04161H2.29317C1.77067 5.04161 1.6665 5.28744 1.6665 5.55744C1.6665 6.04244 2.28567 8.44244 4.55067 11.6166C6.06067 13.7841 8.1865 14.9591 10.1232 14.9591C11.284 14.9591 11.4273 14.6983 11.4273 14.2483V12.6099C11.4273 12.0883 11.5382 11.9833 11.9057 11.9833C12.1757 11.9833 12.6407 12.1199 13.7248 13.1641C14.9632 14.4024 15.1682 14.9583 15.864 14.9583H17.6907C18.2123 14.9583 18.4732 14.6974 18.3232 14.1824C18.159 13.6699 17.5673 12.9241 16.7823 12.0416C16.3557 11.5383 15.7182 10.9966 15.524 10.7258C15.2532 10.3766 15.3315 10.2224 15.524 9.91244C15.5248 9.91327 17.7507 6.77827 17.9823 5.71244Z" fill="#0077FF"/>
</svg>
